# Tiled2Unity generated file. Do not modify by hand.
# Wavefront file for 'School-Front_mesh_0002.obj'

# Vertices (Count = 236)
v 0 -48 0
v -48 -48 0
v -48 0 0
v 0 0 0
v -48 -48 0
v -96 -48 0
v -96 0 0
v -48 0 0
v -96 -48 0
v -144 -48 0
v -144 0 0
v -96 0 0
v -144 -48 0
v -192 -48 0
v -192 0 0
v -144 0 0
v -192 -48 0
v -240 -48 0
v -240 0 0
v -192 0 0
v -240 -48 0
v -288 -48 0
v -288 0 0
v -240 0 0
v -288 -48 0
v -336 -48 0
v -336 0 0
v -288 0 0
v -336 -48 0
v -384 -48 0
v -384 0 0
v -336 0 0
v -384 -48 0
v -432 -48 0
v -432 0 0
v -384 0 0
v -432 -48 0
v -480 -48 0
v -480 0 0
v -432 0 0
v -480 -48 0
v -528 -48 0
v -528 0 0
v -480 0 0
v -528 -48 0
v -576 -48 0
v -576 0 0
v -528 0 0
v -576 -48 0
v -624 -48 0
v -624 0 0
v -576 0 0
v -624 -48 0
v -672 -48 0
v -672 0 0
v -624 0 0
v -672 -48 0
v -720 -48 0
v -720 0 0
v -672 0 0
v -720 -48 0
v -768 -48 0
v -768 0 0
v -720 0 0
v -768 -48 0
v -816 -48 0
v -816 0 0
v -768 0 0
v 0 -96 0
v -48 -96 0
v -48 -48 0
v 0 -48 0
v -48 -96 0
v -96 -96 0
v -96 -48 0
v -48 -48 0
v -96 -96 0
v -144 -96 0
v -144 -48 0
v -96 -48 0
v -144 -96 0
v -192 -96 0
v -192 -48 0
v -144 -48 0
v -192 -96 0
v -240 -96 0
v -240 -48 0
v -192 -48 0
v -240 -96 0
v -288 -96 0
v -288 -48 0
v -240 -48 0
v -288 -96 0
v -336 -96 0
v -336 -48 0
v -288 -48 0
v -336 -96 0
v -384 -96 0
v -384 -48 0
v -336 -48 0
v -384 -96 0
v -432 -96 0
v -432 -48 0
v -384 -48 0
v -432 -96 0
v -480 -96 0
v -480 -48 0
v -432 -48 0
v -480 -96 0
v -528 -96 0
v -528 -48 0
v -480 -48 0
v -528 -96 0
v -576 -96 0
v -576 -48 0
v -528 -48 0
v -576 -96 0
v -624 -96 0
v -624 -48 0
v -576 -48 0
v -624 -96 0
v -672 -96 0
v -672 -48 0
v -624 -48 0
v -672 -96 0
v -720 -96 0
v -720 -48 0
v -672 -48 0
v -720 -96 0
v -768 -96 0
v -768 -48 0
v -720 -48 0
v -768 -96 0
v -816 -96 0
v -816 -48 0
v -768 -48 0
v 0 -144 0
v -48 -144 0
v -48 -96 0
v 0 -96 0
v -48 -144 0
v -96 -144 0
v -96 -96 0
v -48 -96 0
v -96 -144 0
v -144 -144 0
v -144 -96 0
v -96 -96 0
v -144 -144 0
v -192 -144 0
v -192 -96 0
v -144 -96 0
v -192 -144 0
v -240 -144 0
v -240 -96 0
v -192 -96 0
v -240 -144 0
v -288 -144 0
v -288 -96 0
v -240 -96 0
v -288 -144 0
v -336 -144 0
v -336 -96 0
v -288 -96 0
v -336 -144 0
v -384 -144 0
v -384 -96 0
v -336 -96 0
v -384 -144 0
v -432 -144 0
v -432 -96 0
v -384 -96 0
v -432 -144 0
v -480 -144 0
v -480 -96 0
v -432 -96 0
v -480 -144 0
v -528 -144 0
v -528 -96 0
v -480 -96 0
v -528 -144 0
v -576 -144 0
v -576 -96 0
v -528 -96 0
v -576 -144 0
v -624 -144 0
v -624 -96 0
v -576 -96 0
v -624 -144 0
v -672 -144 0
v -672 -96 0
v -624 -96 0
v -672 -144 0
v -720 -144 0
v -720 -96 0
v -672 -96 0
v -720 -144 0
v -768 -144 0
v -768 -96 0
v -720 -96 0
v -768 -144 0
v -816 -144 0
v -816 -96 0
v -768 -96 0
v -288 -192 0
v -336 -192 0
v -336 -144 0
v -288 -144 0
v -336 -192 0
v -384 -192 0
v -384 -144 0
v -336 -144 0
v -384 -192 0
v -432 -192 0
v -432 -144 0
v -384 -144 0
v -432 -192 0
v -480 -192 0
v -480 -144 0
v -432 -144 0
v -288 -240 0
v -336 -240 0
v -336 -192 0
v -288 -192 0
v -336 -240 0
v -384 -240 0
v -384 -192 0
v -336 -192 0
v -384 -240 0
v -432 -240 0
v -432 -192 0
v -384 -192 0
v -432 -240 0
v -480 -240 0
v -480 -192 0
v -432 -192 0

# Texture cooridinates (Count = 49)
vt 0 0.875
vt 0.122449 0.875
vt 0.122449 0.9375
vt 0 0.9375
vt 0.244898 0.875
vt 0.244898 0.9375
vt 0.3673469 0.875
vt 0.3673469 0.9375
vt 0.4897959 0.875
vt 0.4897959 0.9375
vt 0 0.8125
vt 0.122449 0.8125
vt 0.244898 0.8125
vt 0 0.6875
vt 0.122449 0.6875
vt 0.122449 0.75
vt 0 0.75
vt 0.244898 0.6875
vt 0.244898 0.75
vt 0.3673469 0.6875
vt 0.3673469 0.75
vt 0.4897959 0.6875
vt 0.4897959 0.75
vt 0.3673469 0.8125
vt 0.4897959 0.8125
vt 0 0.625
vt 0.122449 0.625
vt 0.6122449 0.625
vt 0.7346939 0.625
vt 0.7346939 0.6875
vt 0.6122449 0.6875
vt 0.8571429 0.625
vt 0.8571429 0.6875
vt 0.3673469 0.625
vt 0.4897959 0.625
vt 0 0.5625
vt 0.122449 0.5625
vt 0.6122449 0.5625
vt 0.7346939 0.5625
vt 0.8571429 0.5625
vt 0.3673469 0.5625
vt 0.4897959 0.5625
vt 0 0.5
vt 0.122449 0.5
vt 0.6122449 0.5
vt 0.7346939 0.5
vt 0.8571429 0.5
vt 0.3673469 0.5
vt 0.4897959 0.5

# Normal
vn 0 0 -1

# Mesh description
g School-Front_mesh_0002

# Faces
f 1/1/1 2/2/1 3/3/1 4/4/1
f 5/2/1 6/5/1 7/6/1 8/3/1
f 9/1/1 10/2/1 11/3/1 12/4/1
f 13/2/1 14/5/1 15/6/1 16/3/1
f 17/1/1 18/2/1 19/3/1 20/4/1
f 21/2/1 22/5/1 23/6/1 24/3/1
f 25/1/1 26/2/1 27/3/1 28/4/1
f 29/2/1 30/5/1 31/6/1 32/3/1
f 33/5/1 34/7/1 35/8/1 36/6/1
f 37/7/1 38/9/1 39/10/1 40/8/1
f 41/5/1 42/7/1 43/8/1 44/6/1
f 45/7/1 46/9/1 47/10/1 48/8/1
f 49/5/1 50/7/1 51/8/1 52/6/1
f 53/7/1 54/9/1 55/10/1 56/8/1
f 57/1/1 58/2/1 59/3/1 60/4/1
f 61/2/1 62/5/1 63/6/1 64/3/1
f 65/5/1 66/7/1 67/8/1 68/6/1
f 69/11/1 70/12/1 71/2/1 72/1/1
f 73/12/1 74/13/1 75/5/1 76/2/1
f 77/11/1 78/12/1 79/2/1 80/1/1
f 81/12/1 82/13/1 83/5/1 84/2/1
f 85/11/1 86/12/1 87/2/1 88/1/1
f 89/12/1 90/13/1 91/5/1 92/2/1
f 93/14/1 94/15/1 95/16/1 96/17/1
f 97/15/1 98/18/1 99/19/1 100/16/1
f 101/18/1 102/20/1 103/21/1 104/19/1
f 105/20/1 106/22/1 107/23/1 108/21/1
f 109/13/1 110/24/1 111/7/1 112/5/1
f 113/24/1 114/25/1 115/9/1 116/7/1
f 117/13/1 118/24/1 119/7/1 120/5/1
f 121/24/1 122/25/1 123/9/1 124/7/1
f 125/11/1 126/12/1 127/2/1 128/1/1
f 129/12/1 130/13/1 131/5/1 132/2/1
f 133/13/1 134/24/1 135/7/1 136/5/1
f 137/17/1 138/16/1 139/12/1 140/11/1
f 141/16/1 142/19/1 143/13/1 144/12/1
f 145/17/1 146/16/1 147/12/1 148/11/1
f 149/16/1 150/19/1 151/13/1 152/12/1
f 153/17/1 154/16/1 155/12/1 156/11/1
f 157/16/1 158/19/1 159/13/1 160/12/1
f 161/26/1 162/27/1 163/15/1 164/14/1
f 165/28/1 166/29/1 167/30/1 168/31/1
f 169/29/1 170/32/1 171/33/1 172/30/1
f 173/34/1 174/35/1 175/22/1 176/20/1
f 177/19/1 178/21/1 179/24/1 180/13/1
f 181/21/1 182/23/1 183/25/1 184/24/1
f 185/19/1 186/21/1 187/24/1 188/13/1
f 189/21/1 190/23/1 191/25/1 192/24/1
f 193/17/1 194/16/1 195/12/1 196/11/1
f 197/16/1 198/19/1 199/13/1 200/12/1
f 201/19/1 202/21/1 203/24/1 204/13/1
f 205/36/1 206/37/1 207/27/1 208/26/1
f 209/38/1 210/39/1 211/29/1 212/28/1
f 213/39/1 214/40/1 215/32/1 216/29/1
f 217/41/1 218/42/1 219/35/1 220/34/1
f 221/43/1 222/44/1 223/37/1 224/36/1
f 225/45/1 226/46/1 227/39/1 228/38/1
f 229/46/1 230/47/1 231/40/1 232/39/1
f 233/48/1 234/49/1 235/42/1 236/41/1

